<svg width="120" height="120" viewBox="0 0 120 120" fill="none" xmlns="http://www.w3.org/2000/svg">
<g clip-path="url(#clip0_1_23)">
<path d="M120 120H0V0H120" fill="#171D22"/>
<path d="M117.976 21.1383C117.646 15.4693 111.816 12.4459 107.025 15.3985L86.5867 35.6651C80.8988 30.5394 65.6996 14.9733 64.0947 13.7214C61.5222 11.7136 58.5485 10.8633 54.5835 14.5481C48.6832 20.0045 33.9324 35.3108 33.3896 35.6887L12.951 15.4221C8.84434 12.871 3.60488 14.7371 2.28322 19.4376L2 100.008C2.0944 103.268 4.17131 105.843 7.28667 106.717L110.99 107C115.121 106.622 118.023 103.811 118 99.6067V21.1383H117.976ZM93.5962 52.7666L71.9775 74.4033L64.9444 67.3643L86.5631 45.7276L93.5962 52.7666ZM66.7381 79.2219L60.1061 86.1428L53.1202 79.2928C54.489 77.9228 58.7609 73.5057 59.7993 72.5845L66.7145 79.2219H66.7381ZM59.9881 19.1069L81.6068 40.7672L59.9645 62.4275L38.3458 40.7672L59.9881 19.1069ZM33.3896 45.7276L55.0083 67.3643L47.9751 74.4033L26.3564 52.7666L33.3896 45.7276ZM25.7192 98.7327L25.6012 99.772H8.82074V22.1304L28.2917 40.7436C24.2559 45.0898 16.8924 48.94 20.3381 56.0263C27.1117 64.3408 35.4901 71.3326 42.7593 79.2219C41.9568 80.1667 29.9674 91.5283 26.616 96.1108C26.144 96.7485 25.8136 97.9296 25.7192 98.7091V98.7327ZM33.3896 99.772L48.1167 84.5838C52.601 89.0718 58.6901 96.9848 64.732 91.5284C65.8884 90.4654 71.3875 84.4657 72.1191 84.5838L86.7755 99.772H33.4132H33.3896ZM111.156 99.772H94.3515C94.5167 98.0005 93.8322 96.5124 92.7466 95.1896L77.1934 79.2219C84.4862 71.3326 92.8646 64.3408 99.6145 56.0263C102.895 49.625 95.1303 45.1134 91.4249 41.1924L109.716 22.5319L111.132 22.154V99.7956L111.156 99.772Z" fill="#A98F75"/>
</g>
<defs>
<clipPath id="clip0_1_23">
<rect width="120" height="120" fill="white"/>
</clipPath>
</defs>
</svg>
